<?xml version="1.0" standalone="no"?>
<!DOCTYPE svg PUBLIC "-//W3C//DTD SVG 20010904//EN"
 "http://www.w3.org/TR/2001/REC-SVG-20010904/DTD/svg10.dtd">
<svg version="1.0" xmlns="http://www.w3.org/2000/svg"
 width="512.000000pt" height="512.000000pt" viewBox="0 0 512.000000 512.000000"
 preserveAspectRatio="xMidYMid meet">
<metadata>
Created by potrace 1.14, written by Peter Selinger 2001-2017
</metadata>
<g transform="translate(0.000000,512.000000) scale(0.100000,-0.100000)"
fill="#000000" stroke="none">
<path d="M393 5106 c-186 -45 -345 -207 -382 -388 -8 -38 -11 -677 -9 -2183
l3 -2130 22 -60 c67 -175 220 -306 393 -335 46 -8 684 -10 2180 -8 l2115 3 68
27 c86 35 141 73 205 143 60 66 106 156 122 240 8 44 10 633 8 2180 l-3 2120
-23 59 c-64 169 -213 300 -380 335 -82 17 -4248 14 -4319 -3z m867 -922 c166
-49 297 -160 373 -315 74 -153 79 -184 84 -511 l5 -288 -225 0 -226 0 -3 273
c-3 256 -4 274 -24 312 -29 54 -51 72 -104 86 -87 22 -158 -18 -194 -109 -14
-38 -16 -139 -16 -1070 0 -1133 -3 -1085 62 -1151 37 -37 62 -45 129 -39 66 7
99 33 126 99 21 51 22 69 23 317 l0 262 226 0 226 0 -5 -292 c-5 -334 -11
-367 -83 -517 -78 -160 -220 -277 -385 -316 -82 -19 -256 -19 -338 0 -235 56
-399 248 -446 524 -14 76 -15 235 -13 1147 3 1058 3 1059 25 1137 73 256 263
433 508 471 56 8 220 -3 275 -20z m2970 -3 c157 -49 288 -165 364 -323 69
-144 76 -193 76 -512 l0 -276 -219 0 -220 0 -3 268 c-3 264 -3 268 -28 317
-33 64 -76 90 -150 90 -71 0 -109 -26 -141 -97 l-24 -53 0 -1035 0 -1035 27
-57 c37 -79 72 -100 157 -95 58 3 66 6 97 39 56 62 64 110 64 390 l0 248 220
0 220 0 0 -282 c0 -321 -10 -391 -76 -524 -80 -163 -237 -289 -402 -323 -87
-18 -248 -14 -336 9 -201 51 -352 209 -418 435 l-23 80 0 1110 0 1110 23 80
c72 247 248 411 489 455 74 14 229 4 303 -19z m-1800 -501 l0 -489 73 55 c158
120 289 158 408 119 66 -22 135 -89 172 -167 58 -123 57 -91 57 -1220 l0
-1038 -220 0 -220 0 0 951 c0 687 -3 962 -11 990 -26 85 -96 106 -173 52 -22
-16 -51 -44 -63 -62 l-23 -34 0 -948 0 -949 -225 0 -225 0 0 1615 0 1615 225
0 225 0 0 -490z"/>
</g>
</svg>
